<svg t="1752982019099" class="icon" viewBox="0 0 1024 1024" version="1.1" xmlns="http://www.w3.org/2000/svg" p-id="1851"
     width="16" height="16">
    <path d="M293.98357333 223.05905778a91.02222222 91.02222222 0 0 0-76.02176 32.768 117.12739555 117.12739555 0 0 0-23.01041778 75.43921777 117.16380445 117.16380445 0 0 0 22.13660445 75.29358223 92.66062222 92.66062222 0 0 0 77.47811555 32.768 89.45664 89.45664 0 0 0 57.67168-19.36952889 91.78680889 91.78680889 0 0 0 32.768-57.08913778H351.80088889a64.37091555 64.37091555 0 0 1-20.97152 35.53507556 59.38289778 59.38289778 0 0 1-36.40888889 10.92266666 59.89262222 59.89262222 0 0 1-50.53553778-21.55406222 92.58780445 92.58780445 0 0 1-14.85482667-56.50659556A90.51249778 90.51249778 0 0 1 244.17621333 275.34222222a56.76145778 56.76145778 0 0 1 49.22481778-22.28224 61.89511111 61.89511111 0 0 1 35.82634667 9.32067556 48.49664 48.49664 0 0 1 19.51516444 30.00092444h33.20490667a76.78634667 76.78634667 0 0 0-27.23384889-50.24426667 93.17034667 93.17034667 0 0 0-60.73002667-19.07825777z m167.18961778 12.81592889l-33.20490666 13.68974222v34.95253333h-27.08821334v27.37948445h27.08821334v85.05116444a39.43082667 39.43082667 0 0 0 8.73813333 27.67075556 36.40888889 36.40888889 0 0 0 28.83584 10.48576h25.48622222v-27.37948445h-19.80643555a9.93962667 9.93962667 0 0 1-7.5730489-2.62144 11.83288889 11.83288889 0 0 1-2.33016888-8.15559111v-85.05116444h33.49617778v-27.37948445h-33.49617778z m129.32437334 44.56448a36.00839111 36.00839111 0 0 0-23.88423112 8.15559111 51.26371555 51.26371555 0 0 0-14.27228444 17.47626667v-21.55406223h-32.768v150.58716445h32.768v-79.80828445a40.59591111 40.59591111 0 0 1 11.94211556-30.87473777 32.25827555 32.25827555 0 0 1 23.44732444-10.1944889 71.65269333 71.65269333 0 0 1 21.55406222 3.20398223v-33.20490667a42.27072 42.27072 0 0 0-18.78698666-3.78652444z m40.9235911-57.38040889v212.04536889h33.20490667V223.05905778zM759.58044445 286.26488889v59.71057778h-60.14748445v27.23384888h60.00184889v60.14748445h27.37948444v-60.14748445h59.71057778v-27.37948444h-59.71057778v-59.71057778zM100.57955555 591.22574222l-79.51701333 207.96757333h36.40888889l18.93262222-52.13752888h87.09006222l18.93262223 52.13752888h36.40888889l-79.51701334-207.96757333z m-13.98101333 127.86801778l32.768-91.02222222h1.16508445l32.768 91.02222222z m152.62606223-131.94581333v212.04536888h33.20490666v-212.04536888z m118.2560711 12.81592888l-33.20490666 13.68974223v34.95253333H297.18755555v27.37948444h27.08821334v85.05116445a39.43082667 39.43082667 0 0 0 8.73813333 27.67075555 36.40888889 36.40888889 0 0 0 28.98147556 10.48576h25.48622222v-27.37948444h-19.80643555a9.93962667 9.93962667 0 0 1-7.5730489-2.62144 11.83288889 11.83288889 0 0 1-2.33016888-8.15559111v-85.05116445h33.49617778v-27.37948444h-33.49617778z m115.34336 50.38990223v59.71057777H412.96782222v27.2338489h60.00184889v60.14748444h27.37948444v-60.14748444h59.71057778v-27.2338489h-59.71057778V650.35377778z m122.18823112-59.12803556v207.96757333h75.87612444a99.68753778 99.68753778 0 0 0 76.45866667-27.96202666 107.26058667 107.26058667 0 0 0 25.04931555-76.02176 106.31395555 106.31395555 0 0 0-25.04931555-76.02176 99.68753778 99.68753778 0 0 0-76.45866667-27.96202667z m34.07872 29.12711111h35.53507555a77.66016 77.66016 0 0 1 56.79786667 17.76753778 78.78883555 78.78883555 0 0 1 17.47626666 57.08913778 79.88110222 79.88110222 0 0 1-17.47626666 56.79786666 77.69656889 77.69656889 0 0 1-56.79786667 18.20444445h-35.68071111z m236.65777778 24.17550222a65.20832 65.20832 0 0 0-53.01134223 23.01041778 81.41027555 81.41027555 0 0 0-19.80643555 56.21532445 80.31800889 80.31800889 0 0 0 20.97152 58.83676444 70.41479111 70.41479111 0 0 0 53.30261333 20.68024889 74.71104 74.71104 0 0 0 50.09863111-17.18499556 68.37589333 68.37589333 0 0 0 20.97152-35.24380444h-33.20490666a49.91658667 49.91658667 0 0 1-13.39847112 18.20444444 40.85077333 40.85077333 0 0 1-24.75804444 6.99050667 35.13457778 35.13457778 0 0 1-27.67075556-10.92266667 54.61333333 54.61333333 0 0 1-11.35957333-32.03982222h112.86755555a100.41571555 100.41571555 0 0 0-18.05880888-63.49710222 67.39285333 67.39285333 0 0 0-56.94350222-25.04931556z m0.87381333 27.2338489a36.0448 36.0448 0 0 1 39.3216 36.40888888h-77.47811556a48.93354667 48.93354667 0 0 1 12.23338667-27.08821333 34.55203555 34.55203555 0 0 1 25.92312889-9.32067555z m103.10997333-84.46862223v211.89973333h33.05927111v-212.04536888z"
          fill="#262626" p-id="1853"></path>
</svg>